# xmcd
#
# Track frame offsets:
#	150
#	15178
#	30778
#	43924
#	54625
#	66613
#	81645
#	96080
#	107168
#	118372
#	133175
#
# Disc length: 1885 seconds
#
# Revision: 1
# Processed by: cddbd v1.5.2PL0 Copyright (c) Steve Scherf et al.
# Submitted via: audiograbber 1.82.01
#
DISCID=9b075b0b
DTITLE=Smash Mouth - Summer Girl
DYEAR=2006
DGENRE=Rock
TTITLE0=The Crawl
TTITLE1=Everyday Superhero
TTITLE2=So Insane
TTITLE3=Girl Like You
TTITLE4=Getaway Car
TTITLE5=Story Of My Life
TTITLE6=Right Side, Wrong Bed
TTITLE7=Summer Girl
TTITLE8=Hey L.a.
TTITLE9=Quality Control
TTITLE10=Beautiful Bomb
EXTD=
EXTT0=
EXTT1=
EXTT2=
EXTT3=
EXTT4=
EXTT5=
EXTT6=
EXTT7=
EXTT8=
EXTT9=
EXTT10=
PLAYORDER=
